<?xml version="1.0" encoding="utf-8"?>
<!-- Generator: Adobe Illustrator 23.0.3, SVG Export Plug-In . SVG Version: 6.00 Build 0)  -->
<svg version="1.1" id="Layer_1" xmlns="http://www.w3.org/2000/svg" xmlns:xlink="http://www.w3.org/1999/xlink" x="0px" y="0px"
	 viewBox="0 0 1200 1200" enable-background="new 0 0 1200 1200" xml:space="preserve">
<g>
	<path fill="#F69A8F" d="M800.068,140.345c68.081-16.364,142.379,8.973,193.281,57.054c50.902,48.081,79.829,116.326,89.195,185.717
		c4.838,35.843,4.655,73.2-7.876,107.129c-19.896,53.87-67.589,91.836-113.829,125.889c81.205-2.223,154.237,68.169,166.169,148.523
		c11.932,80.354-30.465,163.109-96.08,211.004c-20.229,14.766-42.777,26.779-67.117,32.678c-42.995,10.42-89.141,0.93-128.45-19.366
		c-39.309-20.296-72.501-50.735-102.308-83.426c21.678,53.764,39.574,116.866,11.484,167.576
		c-26.99,48.724-87.146,68.009-142.5,74.204c-61.403,6.872-127.087,1.934-178.853-31.798
		c-47.406-30.891-78.285-83.857-87.98-139.604c-9.695-55.746,0.571-113.834,22.965-165.797
		c-35.739,50.15-109.843,63.517-166.247,38.802S96.945,768.379,81.207,708.843s-11.218-122.635-0.453-183.269
		c6.954-39.17,16.816-78.733,38.431-112.131s56.879-60.036,96.588-62.447c46.292-2.811,87.757,26.299,124.919,54.043
		c-41.737-31.129-66.118-84.157-62.578-136.105c2.787-40.884,21.444-79,43.011-113.844c20.491-33.106,71.349-52.26,104.08-73.346
		c61.164-39.404,120.252-45.067,177.56-0.24c50.334,39.373,79.376,105.829,76.135,169.434
		C699.56,197.18,742.757,154.12,800.068,140.345z"/>
	<path fill="#DB285F" d="M337.348,307.125c-1.45-6.897-1.087-16.23,5.635-18.347c4.451-1.401,9.012,1.471,12.796,4.201
		c19.817,14.294,39.634,28.588,59.452,42.882c-8.681-29.563-9.533-61.388-2.446-91.373c1.635-6.92,4.208-14.426,10.426-17.874
		c11.344-6.289,24.138,5.027,32.167,15.214c14.505,18.405,29.01,36.811,43.515,55.216c-3.71-34.282-6.499-72.22,14.005-99.944
		c4.156-5.619,10.28-11.024,17.209-10.107c7.654,1.012,12.084,8.988,15.172,16.064c10.321,23.655,19.256,47.914,26.743,72.613
		c5.482-24.04,14.051-47.374,25.43-69.248c4.264-8.196,10.596-17.229,19.835-17.282c12.191-0.07,18.031,14.782,19.97,26.818
		c9.812,60.907,4.604,124.177-15.037,182.659c-1.082,3.223-2.248,6.505-4.402,9.135c-16.916,20.658-78.043,28.679-103.652,36.191
		c-21.722,6.372-44.526,13.051-66.909,5.863C393.991,432.699,348.744,358.408,337.348,307.125z"/>
	<path fill="#DB285F" d="M790.096,251.838c5.485-4.948,11.59-9.898,18.914-10.857c7.324-0.959,15.866,3.883,16.129,11.265
		c0.829,23.234-5.152,46.67-17.012,66.666c18.846-20.648,45.691-33.801,73.557-36.039c4.924-0.395,10.724-0.062,13.554,3.987
		c2.58,3.691,1.442,8.721,0.095,13.019c-7.352,23.456-17.975,45.884-31.467,66.431c16.08-18.219,39.284-29.978,63.485-32.172
		c4.712-0.427,10.303-0.098,12.94,3.83c1.901,2.833,1.542,6.568,0.964,9.93c-4.709,27.401-19.341,52.988-40.57,70.941
		c14.43-10.01,31.17-16.669,48.533-19.306c8.974-1.363,20.294-0.426,24.044,7.84c2.789,6.15-0.212,13.313-3.744,19.068
		c-11.444,18.643-29.093,33.402-49.467,41.368c12.27-1.964,23.655-7.889,35.951-9.68c12.296-1.79,27.098,2.312,31.533,13.919
		c3.536,9.255-1.073,20.049-8.524,26.579c-7.451,6.53-17.192,9.698-26.686,12.529c-56.274,16.78-114.373,27.434-172.94,31.715
		c-2.727,0.199-5.991,0.138-7.506-2.138c-18.793-28.237-41.251-52.341-62.745-78.327c-17.908-21.649-16.253-35.057-9.083-62.227
		C715.015,343.475,746.523,291.151,790.096,251.838z"/>
	<path fill="#DB285F" d="M922.726,653.4c21.786,11.173,45.248,24.296,54.093,47.127c1.233,3.181,2.11,6.887,0.508,9.898
		c-1.541,2.896-4.893,4.256-8.017,5.261c-25.564,8.225-53.938,7.41-78.987-2.268c30.614,12.307,56.623,35.72,72.069,64.877
		c2.563,4.839,4.627,11.386,0.772,15.275c-2.294,2.314-5.859,2.677-9.116,2.79c-26.828,0.937-53.884-6.04-76.913-19.833
		c20.313,18.31,33.012,44.822,34.548,72.126c-27.3,2.314-55.417-9.693-72.624-31.014c10.097,14.838,18.231,31.011,24.123,47.965
		c1.728,4.971,3.253,10.498,1.29,15.382c-4.184,10.412-19.212,9.406-29.811,5.721c-51.497-17.906-95.655-56.043-120.866-104.386
		c-6.213-11.914-11.388-25.85-6.949-38.533c3.595-10.274,12.692-17.403,20.617-24.865c16.522-15.558,29.362-34.923,37.519-56.086
		c6.048-15.694,4.895-34.087,20.227-42.879C822.09,598.808,890.857,637.056,922.726,653.4z"/>
	<path fill="#DB285F" d="M686.194,960.03c0.666,15.751-1.966,35.459-16.872,40.592c-12.899,4.441-26.371-5.803-33.712-17.301
		c-7.341-11.498-11.859-25.182-22.09-34.207c1.944,21.123-1.293,42.704-9.349,62.327c-4.951,12.059-17.026,25.26-28.721,19.502
		c-5.261-2.591-8.141-8.282-10.445-13.675c-10.063-23.555-16.095-48.826-17.753-74.387c-3.871,20.624-12.81,40.278-25.81,56.75
		c-5.969,7.564-16.918,14.858-24.289,8.653c-3.671-3.09-4.529-8.318-5.057-13.087c-2.294-20.714-2.96-41.607-1.989-62.425
		c-5.485,20.327-17.948,38.701-34.804,51.315c-6.921,5.179-15.868,9.545-23.96,6.505c-13.034-4.896-12.893-23.241-9.751-36.805
		c11.454-49.455,31.188-96.982,58.133-140.005c3.135-5.006,6.591-10.161,11.817-12.913c4.517-2.379,9.806-2.664,14.906-2.9
		c35.59-1.647,112.242-20.622,142.888,5.349C682.582,831.493,686.194,920.041,686.194,960.03z"/>
	<path fill="#DB285F" d="M241.946,774.531c-6.449,0.971-14.9,0.702-17.159-5.416c-1.787-4.839,1.82-9.882,5.35-13.644
		c13.125-13.988,28.513-25.849,45.382-34.981c-22.835,3.053-46.502-0.387-67.524-9.813c-14.16-6.349-28.935-21.652-21.454-35.249
		c3.867-7.028,12.251-10.056,20.012-12.085c18.291-4.781,37.199-7.195,56.104-7.164c-28.799-6.303-55.188-23.076-73.118-46.477
		c-8.274-10.797-14.219-27.596-4.216-36.815c4.287-3.951,10.372-5.157,16.147-5.956c20.313-2.81,41.044-2.584,61.291,0.668
		c-19.713-14.468-39.741-29.244-54.291-48.897c-4.252-5.742-8.1-12.148-8.772-19.261c-1.128-11.94,7.321-23.271,18.053-28.626
		c10.732-5.355,23.255-5.763,35.203-4.728c43.405,3.761,83.188,24.724,121.55,45.376c7.817,4.208,16.055,8.83,20.298,16.628
		c6.996,12.856,0.603,28.469-3.878,42.401c-6.599,20.516-8.801,42.369-7.071,63.85c1.835,22.772,12.775,41.125,16.826,62.574
		c4.195,22.21-2.72,24.949-23.675,35.463C334.837,753.538,288.535,767.513,241.946,774.531z"/>
	<path fill="#FEBB12" d="M569.52,396.314c65.141-6.394,132.779,18.933,177.281,66.93c44.502,47.997,64.653,117.651,52.09,181.888
		c-12.563,64.237-57.718,121.342-117.56,147.86c-20.991,9.301-43.409,14.963-65.921,19.472c-24.855,4.978-50.312,8.611-75.514,5.886
		c-59.995-6.487-110.603-47.98-149.076-94.47c-10.6-12.808-20.737-26.405-26.281-42.079c-7.461-21.094-6.027-44.174-4.023-66.459
		c4.678-52.021,14.396-107.289,51.261-146.801C449.954,427.623,514.617,401.703,569.52,396.314z"/>
	<path fill="#F46954" d="M436.835,518.915c36.279-53.396,104.488-82.838,168.367-73.522s120.532,56.51,142.111,117.351
		c14.404,40.611,13.119,88.18-10.256,124.379c-12.526,19.399-30.616,34.664-50.095,47.066
		c-38.596,24.572-84.54,38.91-130.164,35.466C432.251,760.254,366.543,622.368,436.835,518.915z"/>
	<path fill="#344796" d="M557.228,531.366c12.049-1.589,24.363-0.174,36.102,2.973c28.106,7.535,54.018,26.086,66.273,52.478
		c12.256,26.391,8.666,60.531-11.917,81.098c-11.105,11.096-25.95,17.619-40.865,22.516
		c-47.776,15.686-104.112-3.598-117.891-57.141C477.797,590.03,513.569,537.124,557.228,531.366z"/>
</g>
</svg>
